<svg width="100" height="100" viewBox="0 0 100 100" version="1.1" xmlns="http://www.w3.org/2000/svg" xmlns:xlink="http://www.w3.org/1999/xlink">
<title>MetaShort Logo</title>
<desc>Created using Figma</desc>
<g id="Canvas" transform="translate(-190 482)">
<g id="MetaShort Logo">
<g id="Group 2">
<g id="Oval" filter="url(#filter0_d)">
<use xlink:href="#path0_fill" transform="translate(203.542 -469.5)" fill="url(#paint0_linear)"/>
</g>
<g id="&#60;/">
<use xlink:href="#path1_fill" transform="translate(221.446 -446.229)" fill="#FCFCFC"/>
</g>
</g>
</g>
</g>
<defs>
<filter id="filter0_d" filterUnits="userSpaceOnUse" x="193" y="-478" width="94" height="94" color-interpolation-filters="sRGB">
<feFlood flood-opacity="0" result="BackgroundImageFix"/>
<feColorMatrix in="SourceAlpha" type="matrix" values="0 0 0 0 0 0 0 0 0 0 0 0 0 0 0 0 0 0 255 0"/>
<feOffset dx="0" dy="2"/>
<feGaussianBlur stdDeviation="5"/>
<feColorMatrix type="matrix" values="0 0 0 0 0 0 0 0 0 0 0 0 0 0 0 0 0 0 0.5 0"/>
<feBlend mode="normal" in2="BackgroundImageFix" result="effect1_dropShadow"/>
<feBlend mode="normal" in="SourceGraphic" in2="effect1_dropShadow" result="shape"/>
</filter>
<linearGradient id="paint0_linear" x1="0" y1="0" x2="1" y2="0" gradientUnits="userSpaceOnUse" gradientTransform="matrix(0 72.9167 -72.9167 0 36.4583 0)">
<stop offset="0" stop-color="#2FC3FD"/>
<stop offset="1" stop-color="#9847FF"/>
</linearGradient>
<path id="path0_fill" fill-rule="evenodd" d="M 36.4583 72.9167C 56.5937 72.9167 72.9167 56.5937 72.9167 36.4583C 72.9167 16.323 56.5937 0 36.4583 0C 16.323 0 0 16.323 0 36.4583C 0 56.5937 16.323 72.9167 36.4583 72.9167Z"/>
<path id="path1_fill" fill-rule="evenodd" d="M 0 11.1L 16.275 2.85001L 16.275 7.65001L 5.1375 13.1625L 16.2375 18.7125L 16.275 23.5125L 0 15.1875L 0 11.1ZM 29.7 17.175L 28.5 20.25L 27.8625 21.7875L 26.3625 26.025L 25.2375 29.4375C 24.5875 31.3625 24.0813 32.525 23.7187 32.925C 23.3562 33.325 22.5625 33.525 21.3375 33.525C 19.4375 33.525 18.4875 33.15 18.4875 32.4C 18.4875 31.975 18.9625 30.7125 19.9125 28.6125C 20.1125 28.1625 20.5375 27.175 21.1875 25.65C 22.1875 23.275 22.825 21.7375 23.1 21.0375L 26.5875 12L 28.5375 6.45L 29.5875 3.2625C 30.0125 1.93749 30.4437 1.0625 30.8812 0.6375C 31.3188 0.212498 32 0 32.925 0C 35 0 36.0375 0.424996 36.0375 1.275C 36.0375 1.625 35.8375 2.25 35.4375 3.15L 34.5 5.25C 34.4 5.5 33.95 6.64999 33.15 8.7C 32.9 9.3 32.325 10.675 31.425 12.825C 31.125 13.55 30.55 15 29.7 17.175Z"/>
</defs>
</svg>
